<svg id="visual" viewBox="0 0 960 540" width="960" height="540" xmlns="http://www.w3.org/2000/svg" xmlns:xlink="http://www.w3.org/1999/xlink" version="1.1"><path d="M0 158L20 153.5C40 149 80 140 120 138.2C160 136.3 200 141.7 240 141.7C280 141.7 320 136.3 360 139C400 141.7 440 152.3 480 164.8C520 177.3 560 191.7 600 189C640 186.3 680 166.7 720 157.7C760 148.7 800 150.3 840 159.3C880 168.3 920 184.7 940 192.8L960 201L960 0L940 0C920 0 880 0 840 0C800 0 760 0 720 0C680 0 640 0 600 0C560 0 520 0 480 0C440 0 400 0 360 0C320 0 280 0 240 0C200 0 160 0 120 0C80 0 40 0 20 0L0 0Z" fill="#003664"></path><path d="M0 212L20 212C40 212 80 212 120 215.5C160 219 200 226 240 223.2C280 220.3 320 207.7 360 216.7C400 225.7 440 256.3 480 269C520 281.7 560 276.3 600 263.8C640 251.3 680 231.7 720 226.3C760 221 800 230 840 239C880 248 920 257 940 261.5L960 266L960 199L940 190.8C920 182.7 880 166.3 840 157.3C800 148.3 760 146.7 720 155.7C680 164.7 640 184.3 600 187C560 189.7 520 175.3 480 162.8C440 150.3 400 139.7 360 137C320 134.3 280 139.7 240 139.7C200 139.7 160 134.3 120 136.2C80 138 40 147 20 151.5L0 156Z" fill="#002748"></path><path d="M0 341L20 343.7C40 346.3 80 351.7 120 357.2C160 362.7 200 368.3 240 368.3C280 368.3 320 362.7 360 367.2C400 371.7 440 386.3 480 394.5C520 402.7 560 404.3 600 394.3C640 384.3 680 362.7 720 360.8C760 359 800 377 840 381.5C880 386 920 377 940 372.5L960 368L960 264L940 259.5C920 255 880 246 840 237C800 228 760 219 720 224.3C680 229.7 640 249.3 600 261.8C560 274.3 520 279.7 480 267C440 254.3 400 223.7 360 214.7C320 205.7 280 218.3 240 221.2C200 224 160 217 120 213.5C80 210 40 210 20 210L0 210Z" fill="#02192e"></path><path d="M0 433L20 429.3C40 425.7 80 418.3 120 418.3C160 418.3 200 425.7 240 431.2C280 436.7 320 440.3 360 442.2C400 444 440 444 480 447.5C520 451 560 458 600 453.5C640 449 680 433 720 428.5C760 424 800 431 840 435.5C880 440 920 442 940 443L960 444L960 366L940 370.5C920 375 880 384 840 379.5C800 375 760 357 720 358.8C680 360.7 640 382.3 600 392.3C560 402.3 520 400.7 480 392.5C440 384.3 400 369.7 360 365.2C320 360.7 280 366.3 240 366.3C200 366.3 160 360.7 120 355.2C80 349.7 40 344.3 20 341.7L0 339Z" fill="#001021"></path><path d="M0 482L20 481C40 480 80 478 120 481.5C160 485 200 494 240 496.7C280 499.3 320 495.7 360 494.8C400 494 440 496 480 497C520 498 560 498 600 492.5C640 487 680 476 720 476.8C760 477.7 800 490.3 840 494.8C880 499.3 920 495.7 940 493.8L960 492L960 442L940 441C920 440 880 438 840 433.5C800 429 760 422 720 426.5C680 431 640 447 600 451.5C560 456 520 449 480 445.5C440 442 400 442 360 440.2C320 438.3 280 434.7 240 429.2C200 423.7 160 416.3 120 416.3C80 416.3 40 423.7 20 427.3L0 431Z" fill="#000f1e"></path><path d="M0 541L20 541C40 541 80 541 120 541C160 541 200 541 240 541C280 541 320 541 360 541C400 541 440 541 480 541C520 541 560 541 600 541C640 541 680 541 720 541C760 541 800 541 840 541C880 541 920 541 940 541L960 541L960 490L940 491.8C920 493.7 880 497.3 840 492.8C800 488.3 760 475.7 720 474.8C680 474 640 485 600 490.5C560 496 520 496 480 495C440 494 400 492 360 492.8C320 493.7 280 497.3 240 494.7C200 492 160 483 120 479.5C80 476 40 478 20 479L0 480Z" fill="#000d1b"></path></svg>