<svg id="visual" viewBox="0 0 1920 1080" width="1920" height="1080" xmlns="http://www.w3.org/2000/svg" xmlns:xlink="http://www.w3.org/1999/xlink" version="1.1"><path d="M0 390L29.2 363C58.3 336 116.7 282 174.8 273C233 264 291 300 349.2 307.2C407.3 314.3 465.7 292.7 523.8 310.7C582 328.7 640 386.3 698.2 400.7C756.3 415 814.7 386 872.8 353.5C931 321 989 285 1047.2 261.7C1105.3 238.3 1163.7 227.7 1221.8 240.3C1280 253 1338 289 1396.2 287.2C1454.3 285.3 1512.7 245.7 1570.8 216.8C1629 188 1687 170 1745.2 166.5C1803.3 163 1861.7 174 1890.8 179.5L1920 185L1920 0L1890.8 0C1861.7 0 1803.3 0 1745.2 0C1687 0 1629 0 1570.8 0C1512.7 0 1454.3 0 1396.2 0C1338 0 1280 0 1221.8 0C1163.7 0 1105.3 0 1047.2 0C989 0 931 0 872.8 0C814.7 0 756.3 0 698.2 0C640 0 582 0 523.8 0C465.7 0 407.3 0 349.2 0C291 0 233 0 174.8 0C116.7 0 58.3 0 29.2 0L0 0Z" fill="#b16aff"></path><path d="M0 530L29.2 512C58.3 494 116.7 458 174.8 456.2C233 454.3 291 486.7 349.2 488.5C407.3 490.3 465.7 461.7 523.8 469C582 476.3 640 519.7 698.2 550.3C756.3 581 814.7 599 872.8 581C931 563 989 509 1047.2 476.5C1105.3 444 1163.7 433 1221.8 445.5C1280 458 1338 494 1396.2 494C1454.3 494 1512.7 458 1570.8 436.5C1629 415 1687 408 1745.2 391.8C1803.3 375.7 1861.7 350.3 1890.8 337.7L1920 325L1920 183L1890.8 177.5C1861.7 172 1803.3 161 1745.2 164.5C1687 168 1629 186 1570.8 214.8C1512.7 243.7 1454.3 283.3 1396.2 285.2C1338 287 1280 251 1221.8 238.3C1163.7 225.7 1105.3 236.3 1047.2 259.7C989 283 931 319 872.8 351.5C814.7 384 756.3 413 698.2 398.7C640 384.3 582 326.7 523.8 308.7C465.7 290.7 407.3 312.3 349.2 305.2C291 298 233 262 174.8 271C116.7 280 58.3 334 29.2 361L0 388Z" fill="#9c44ff"></path><path d="M0 649L29.2 623.8C58.3 598.7 116.7 548.3 174.8 553.7C233 559 291 620 349.2 636.2C407.3 652.3 465.7 623.7 523.8 625.5C582 627.3 640 659.7 698.2 688.5C756.3 717.3 814.7 742.7 872.8 728.3C931 714 989 660 1047.2 622.2C1105.3 584.3 1163.7 562.7 1221.8 569.8C1280 577 1338 613 1396.2 618.3C1454.3 623.7 1512.7 598.3 1570.8 580.3C1629 562.3 1687 551.7 1745.2 533.7C1803.3 515.7 1861.7 490.3 1890.8 477.7L1920 465L1920 323L1890.8 335.7C1861.7 348.3 1803.3 373.7 1745.2 389.8C1687 406 1629 413 1570.8 434.5C1512.7 456 1454.3 492 1396.2 492C1338 492 1280 456 1221.8 443.5C1163.7 431 1105.3 442 1047.2 474.5C989 507 931 561 872.8 579C814.7 597 756.3 579 698.2 548.3C640 517.7 582 474.3 523.8 467C465.7 459.7 407.3 488.3 349.2 486.5C291 484.7 233 452.3 174.8 454.2C116.7 456 58.3 492 29.2 510L0 528Z" fill="#8300ff"></path><path d="M0 951L29.2 943.8C58.3 936.7 116.7 922.3 174.8 915.2C233 908 291 908 349.2 906.2C407.3 904.3 465.7 900.7 523.8 902.5C582 904.3 640 911.7 698.2 928C756.3 944.3 814.7 969.7 872.8 975C931 980.3 989 965.7 1047.2 947.7C1105.3 929.7 1163.7 908.3 1221.8 906.7C1280 905 1338 923 1396.2 923C1454.3 923 1512.7 905 1570.8 899.5C1629 894 1687 901 1745.2 901C1803.3 901 1861.7 894 1890.8 890.5L1920 887L1920 463L1890.8 475.7C1861.7 488.3 1803.3 513.7 1745.2 531.7C1687 549.7 1629 560.3 1570.8 578.3C1512.7 596.3 1454.3 621.7 1396.2 616.3C1338 611 1280 575 1221.8 567.8C1163.7 560.7 1105.3 582.3 1047.2 620.2C989 658 931 712 872.8 726.3C814.7 740.7 756.3 715.3 698.2 686.5C640 657.7 582 625.3 523.8 623.5C465.7 621.7 407.3 650.3 349.2 634.2C291 618 233 557 174.8 551.7C116.7 546.3 58.3 596.7 29.2 621.8L0 647Z" fill="#7200dc"></path><path d="M0 1081L29.2 1081C58.3 1081 116.7 1081 174.8 1081C233 1081 291 1081 349.2 1081C407.3 1081 465.7 1081 523.8 1081C582 1081 640 1081 698.2 1081C756.3 1081 814.7 1081 872.8 1081C931 1081 989 1081 1047.2 1081C1105.3 1081 1163.7 1081 1221.8 1081C1280 1081 1338 1081 1396.2 1081C1454.3 1081 1512.7 1081 1570.8 1081C1629 1081 1687 1081 1745.2 1081C1803.3 1081 1861.7 1081 1890.8 1081L1920 1081L1920 885L1890.8 888.5C1861.7 892 1803.3 899 1745.2 899C1687 899 1629 892 1570.8 897.5C1512.7 903 1454.3 921 1396.2 921C1338 921 1280 903 1221.8 904.7C1163.7 906.3 1105.3 927.7 1047.2 945.7C989 963.7 931 978.3 872.8 973C814.7 967.7 756.3 942.3 698.2 926C640 909.7 582 902.3 523.8 900.5C465.7 898.7 407.3 902.3 349.2 904.2C291 906 233 906 174.8 913.2C116.7 920.3 58.3 934.7 29.2 941.8L0 949Z" fill="#6100ba"></path></svg>